<svg width="108" height="25" viewBox="0 0 108 25" fill="none" xmlns="http://www.w3.org/2000/svg">
<path d="M88.915 6C89.2887 6 89.6923 6.09023 90.125 6.24023L90.3115 6.30957C90.6656 6.44957 90.9508 6.69027 91.1377 7.03027C91.3245 7.36023 91.4033 7.73999 91.4033 8.16992C91.4033 8.5998 91.3252 9.0698 91.1777 9.59961C91.0597 10.0996 90.8921 10.6703 90.6758 11.3203C90.2038 12.5802 89.6827 13.8505 89.1025 15.1504C88.5715 16.4003 88.0696 17.6605 87.6074 18.9404C87.2634 19.9001 87.0958 20.7299 87.0957 21.4297C87.0957 21.8194 87.1647 22.0298 87.2236 22.1299C87.263 22.1999 87.3223 22.2402 87.4502 22.2402C87.578 22.2402 87.814 22.1799 88.1777 21.96C88.5317 21.75 88.9546 21.4303 89.4658 20.9805C90.4787 20.0605 91.4236 18.9002 92.2988 17.4902C92.9675 16.4003 93.7342 15.0301 94.6094 13.3701L95.5146 11.6201C95.6523 11.3402 95.9175 11.2598 96.124 11.2598C96.3797 11.2598 96.5471 11.4198 96.6553 11.5498H96.6748C96.7436 11.6098 96.8219 11.6901 96.8711 11.79C96.9498 11.96 96.9498 12.1503 96.8711 12.3203C94.9633 16.1201 93.2421 19.0404 91.708 21.0703C90.1444 23.1001 88.3151 24.1699 86.2402 24.1699C85.4635 24.1698 84.8148 23.8798 84.333 23.29L84.3135 23.2803V23.2598C83.8906 22.6398 83.6934 21.88 83.6934 21C83.6934 19.91 83.9004 18.7495 84.3135 17.5195C84.7461 16.3198 85.2376 15.1301 85.7783 13.9404C86.3487 12.7304 86.8506 11.6 87.2734 10.54C87.4504 10.0401 87.6172 9.57967 87.7549 9.17969C87.8925 8.78982 87.9414 8.51981 87.9414 8.33984V8.25H87.9121C87.6761 8.25011 87.3619 8.40044 86.9688 8.91016C86.5557 9.44014 86.1713 10.0398 85.8271 10.7197C85.5125 11.3797 85.2378 11.9103 85.0215 12.3203C84.4806 13.4003 83.8805 14.5102 83.2314 15.6602C82.6316 16.7901 82.0015 17.8303 81.3623 18.7803C81.3525 18.8101 81.3428 18.8305 81.3232 18.8604C81.2643 18.9402 81.1859 19.0003 81.127 19.0303C81.0091 19.0902 80.9009 19.0898 80.8418 19.0898C80.6943 19.0898 80.566 19.0305 80.4873 18.9805C80.3989 18.9305 80.3207 18.86 80.252 18.79C80.1832 18.7201 80.1039 18.6302 80.0547 18.5303C80.0154 18.4503 79.9369 18.2003 80.0938 17.9805C80.7723 17.0005 81.3827 15.9601 81.9531 14.8701C82.5628 13.7301 83.1137 12.6501 83.6152 11.6201C83.9791 10.8401 84.372 10.0397 84.8047 9.21973C85.2963 8.32988 85.8667 7.58994 86.5156 7C87.2039 6.3401 88.0105 6.0001 88.915 6ZM55.8096 6.10059C57.5206 6.10059 58.9368 6.5102 60.0186 7.37012C61.1101 8.2101 61.7392 9.36032 61.8867 10.7803L61.9365 11.29H57.9531L57.8945 10.9102C57.8355 10.5803 57.6683 10.3005 57.3145 10.0605C56.9899 9.84055 56.5078 9.7002 55.8096 9.7002H54.7178C53.8527 9.70022 53.3215 9.87999 53.0166 10.1299C52.7511 10.3599 52.584 10.7103 52.584 11.2803C52.584 11.7603 52.7318 12.0502 52.958 12.2402C53.194 12.4401 53.587 12.6007 54.1768 12.7207L54.4424 12.7705L56.5273 13.1201L56.793 13.1807C58.4451 13.4607 59.7332 13.9705 60.5986 14.7705C61.5722 15.6305 62.0244 16.8606 62.0244 18.3906C62.0244 20.0504 61.4841 21.3904 60.373 22.3604C59.2814 23.3304 57.6878 23.7705 55.6816 23.7705H54.4424C53.2624 23.7705 52.2007 23.5698 51.2764 23.1699C50.3815 22.7699 49.6435 22.2202 49.0928 21.4902C48.5618 20.7503 48.2564 19.8804 48.1777 18.9004L48.1387 18.4004H52.1221L52.1807 18.79C52.2397 19.18 52.4368 19.5005 52.8203 19.7705C53.2038 20.0203 53.7444 20.1699 54.4717 20.1699H55.7109C56.596 20.1699 57.1967 19.9807 57.5605 19.6807C57.9341 19.3807 58.1103 18.9804 58.1104 18.4805C58.1104 17.9805 57.9437 17.6301 57.6191 17.3701V17.3506C57.2946 17.0606 56.7536 16.8307 55.957 16.7207L53.9219 16.3906C52.2009 16.1106 50.8627 15.6007 49.9678 14.8008C49.063 13.9708 48.6406 12.75 48.6406 11.25C48.6407 9.65016 49.1421 8.36013 50.2041 7.4502L50.4102 7.28027C51.4624 6.4703 52.9182 6.10061 54.7178 6.10059H55.8096ZM6.94336 6.05078C8.91998 6.05081 10.5528 6.59022 11.8018 7.7002C13.0604 8.82018 13.7096 10.3408 13.7686 12.2207L13.7881 12.7002H9.79492L9.76562 12.2705C9.70662 11.4505 9.43096 10.8504 8.96875 10.4404C8.49675 10.0205 7.82833 9.79008 6.93359 9.79004C5.96 9.79004 5.23208 10.0408 4.7207 10.5508C4.21935 11.0307 3.94341 11.7403 3.94336 12.75V17.0205C3.9434 18.0303 4.22906 18.75 4.73047 19.25C5.24185 19.75 5.96007 20.0303 6.92383 20.0303C7.82843 20.0302 8.48699 19.7998 8.95898 19.3799C9.4309 18.97 9.70661 18.3705 9.75586 17.5508L9.78516 17.1201H13.7783L13.7588 17.6006C13.6997 19.4805 13.0497 21.0002 11.791 22.1201C10.5421 23.23 8.91008 23.7607 6.93359 23.7607C5.57661 23.7607 4.36677 23.5006 3.29492 22.9707H3.28516C2.23295 22.4207 1.40639 21.6305 0.826172 20.6006C0.275483 19.5606 2.92631e-05 18.3604 0 17.0205V12.7803C2.63869e-06 11.4204 0.275459 10.2204 0.835938 9.19043C1.41616 8.17043 2.24266 7.39035 3.29492 6.86035C4.35699 6.3204 5.5863 6.05078 6.94336 6.05078ZM71.8789 6.10059C73.59 6.10061 75.0062 6.51017 76.0879 7.37012L76.2842 7.53027C77.2577 8.36025 77.8184 9.45032 77.9561 10.7803L78.0059 11.29H74.0225L73.9639 10.9102C73.9049 10.5803 73.7375 10.3005 73.3838 10.0605C73.0691 9.84056 72.5869 9.70021 71.8887 9.7002H70.7969C69.9318 9.70021 69.4006 9.88 69.0957 10.1299C68.8302 10.3599 68.6631 10.7103 68.6631 11.2803C68.6631 11.7603 68.8109 12.0502 69.0371 12.2402C69.3125 12.4701 69.7842 12.6605 70.5215 12.7705L72.6064 13.1201L72.8721 13.1699C74.5341 13.4499 75.8123 13.9607 76.6777 14.7607C77.6413 15.6207 78.0937 16.8502 78.0938 18.3799C78.0938 20.0399 77.5527 21.3806 76.4414 22.3506C75.3498 23.3204 73.7569 23.7607 71.751 23.7607H70.5117C69.3316 23.7607 68.2691 23.5602 67.3447 23.1602C66.4501 22.7602 65.7127 22.2103 65.1621 21.4805C64.6311 20.7405 64.3258 19.8705 64.2471 18.8906L64.208 18.3906H68.1904L68.25 18.7803C68.309 19.1702 68.5052 19.4908 68.8887 19.7607C69.2722 20.0107 69.8134 20.1601 70.541 20.1602H71.7803C72.6752 20.1602 73.265 19.9699 73.6289 19.6699C74.0025 19.37 74.1796 18.9705 74.1797 18.4707C74.1797 17.9708 74.0129 17.6203 73.6885 17.3604V17.3408C73.364 17.0508 72.8229 16.82 72.0264 16.71L69.9902 16.3799C68.2694 16.0999 66.932 15.59 66.0371 14.79C65.1325 13.96 64.71 12.7401 64.71 11.2402C64.71 9.64028 65.2114 8.35041 66.2734 7.44043C67.3454 6.52048 68.8695 6.10059 70.7871 6.10059H71.8789ZM24.458 6.07031C26.238 6.07031 27.7035 6.64012 28.7754 7.83008C29.8768 9.00002 30.3974 10.5902 30.3975 12.54V14.0898H26.3066V12.8105C26.3066 11.7307 26.0314 10.9707 25.5693 10.4707H25.5596C25.1072 9.9607 24.4576 9.68066 23.5332 9.68066C22.609 9.68074 21.9505 9.96077 21.4785 10.4707C21.0163 10.9907 20.7607 11.7506 20.7607 12.8105V23.5H16.7578V6.37012H20.6426V7.76074C20.6819 7.70074 20.7213 7.63984 20.7705 7.58984C21.6261 6.55015 22.8848 6.07031 24.4482 6.07031H24.458ZM41.6973 19.6904H46.7822V23.5H32.2373V19.6904H37.7832V10.1797H32.9551V6.37012H41.6973V19.6904ZM101.814 6.36035H107.99V10.1699L108 10.1807H101.824V18.4707C101.824 18.9605 101.942 19.2502 102.09 19.4102C102.247 19.5701 102.503 19.6904 102.955 19.6904H107.715V23.5H102.837C101.313 23.5 100.074 23.0701 99.1592 22.1602C98.2447 21.2502 97.8116 20.0005 97.8115 18.4707V10.1807H93.4453V6.37012H97.8115V1.80078H101.814V6.36035ZM39.4355 0C40.1043 0 40.6456 0.190547 41.0488 0.560547C41.4419 0.91053 41.6484 1.41049 41.6484 2.03027C41.6484 2.65007 41.4518 3.13005 41.0488 3.5C40.6456 3.85 40.1043 4.03027 39.4355 4.03027C38.757 4.03027 38.2255 3.85 37.8223 3.5C37.4291 3.13005 37.2227 2.64007 37.2227 2.03027C37.2227 1.42049 37.4193 0.910536 37.8223 0.560547C38.2255 0.190549 38.7668 2.48078e-06 39.4355 0ZM91.1436 0.0107422V3.69043H86.6494V0.0107422H91.1436Z" fill="currentColor"/>
</svg>
